<svg xmlns="http://www.w3.org/2000/svg" width="109.391" height="119.109" fill="none" overflow="visible"><g><path d="M 100.091 48.03 C 100.121 36.87 100.191 39.41 100.151 28.23 C 98.941 28.53 97.681 28.68 96.381 28.68 C 95.711 28.68 95.051 28.64 94.401 28.56 C 94.341 47.63 95.751 53.4 94.661 72.1 C 94.451 75.76 93.731 79.37 92.591 82.82 C 91.471 86.2 89.941 89.43 88.071 92.45 C 83.361 100.01 76.471 106.22 68.351 109.84 C 68.101 109.95 67.861 110.06 67.601 110.16 C 67.201 110.33 66.801 110.49 66.391 110.65 C 64.941 111.22 63.491 111.7 62.041 112.1 C 61.611 112.22 61.191 112.34 60.761 112.44 C 53.401 114.26 45.991 114.12 39.081 112.34 C 38.651 112.23 38.221 112.12 37.801 111.99 C 36.321 111.57 34.861 111.06 33.441 110.49 C 32.781 110.23 32.131 109.94 31.491 109.65 C 23.411 105.94 16.481 99.85 11.771 92.05 C 9.871 88.91 8.341 85.49 7.251 81.84 C 6.671 79.91 6.211 77.91 5.881 75.86 C 4.931 51.45 5.751 40.7 5.461 16.24 C 5.581 15.26 6.331 14.14 7.311 13.91 L 80.241 14.05 C 80.191 13.53 80.161 13 80.161 12.46 C 80.161 10.94 80.371 9.47 80.771 8.07 L 2.511 8.14 C 1.281 8.4 -0.029 9.16 0.001 10.45 C 0.191 17.86 0.191 54.92 0.001 73.7 C -0.079 82.21 3.171 89.72 7.241 96.08 C 8.251 97.66 9.361 99.17 10.541 100.6 L 10.541 100.61 C 10.941 101.09 11.341 101.57 11.751 102.03 C 17.591 108.57 25.151 113.42 33.431 116.24 C 35.271 116.88 37.161 117.41 39.071 117.83 C 46.141 119.41 53.561 119.56 60.751 118.09 C 62.651 117.7 64.531 117.2 66.381 116.59 C 74.091 114.05 81.351 109.5 87.421 102.72 C 87.641 102.48 87.851 102.24 88.061 101.99 C 88.231 101.8 88.391 101.6 88.561 101.41 C 88.561 101.41 88.561 101.41 88.561 101.4 C 90.091 99.59 91.421 97.78 92.581 95.96 C 101.981 81.23 100.041 66.2 100.071 48.02 Z" fill="rgb(8,44,135)"></path><path d="M 86.261 25.99 L 86.261 79.42 C 85.311 82.3 84.011 85.05 82.411 87.62 C 78.401 94.06 72.531 99.35 65.621 102.43 L 65.621 25.99 Z" fill="rgb(6,108,255)"></path><path d="M 60.251 47.04 L 60.251 104.35 C 59.881 104.45 59.521 104.55 59.161 104.64 C 52.891 106.19 46.581 106.07 40.701 104.56 C 40.331 104.47 39.971 104.37 39.611 104.26 L 39.611 47.05 L 60.251 47.05 Z" fill="rgb(0,170,254)"></path><path d="M 34.231 60.26 L 34.231 102.25 C 27.351 99.09 21.451 93.9 17.441 87.26 C 15.831 84.59 14.521 81.67 13.591 78.56 L 13.591 60.25 L 34.231 60.25 Z" fill="rgb(89,205,254)"></path><g transform="translate(83.391 0)"><path d="M 25.99 12.97 L 20.85 12.41 C 18 12.1 16.28 9.11 17.43 6.49 L 19.51 1.76 C 23.37 4.01 25.97 8.19 25.98 12.98 Z" fill="rgb(239,159,43)"></path><path d="M 25.99 13.02 C 25.99 17.81 23.38 21.99 19.52 24.24 L 17.44 19.51 C 16.29 16.89 18.01 13.9 20.86 13.59 L 26 13.03 Z" fill="rgb(239,159,43)"></path><path d="M 19.47 24.26 C 17.56 25.36 15.35 25.99 12.99 25.99 C 10.63 25.99 8.42 25.36 6.51 24.26 L 9.57 20.09 C 11.26 17.78 14.71 17.78 16.41 20.09 Z" fill="rgb(239,159,43)"></path><path d="M 8.56 19.5 L 6.48 24.23 C 2.62 21.98 0.02 17.8 0.01 13.01 L 5.15 13.57 C 8 13.88 9.72 16.87 8.57 19.49 Z" fill="rgb(239,159,43)"></path><path d="M 5.14 12.41 L 0 12.97 C 0 8.18 2.61 4 6.47 1.75 L 8.55 6.48 C 9.7 9.1 7.98 12.09 5.13 12.4 Z" fill="rgb(239,159,43)"></path><path d="M 19.47 1.73 L 16.41 5.9 C 14.72 8.21 11.27 8.21 9.57 5.9 L 6.51 1.73 C 8.42 0.63 10.63 0 12.99 0 C 15.35 0 17.56 0.63 19.47 1.73 Z" fill="rgb(239,159,43)"></path></g></g></svg>