<svg xmlns="http://www.w3.org/2000/svg" id="Layer_2" data-name="Layer 2" viewBox="0 0 423.63 119.12"><defs><style>.cls-2{fill:#fff}</style></defs><g id="Layer_1-2" data-name="Layer 1"><path d="M124.44 105.75V25.8h15.88v79.94h-15.88Zm26.18 0V46.28h12.27V71.8h-1.1c0-6.06.8-11.12 2.41-15.17 1.6-4.05 4-7.12 7.17-9.2 3.18-2.08 7.14-3.12 11.88-3.12h.66c7.08 0 12.45 2.3 16.1 6.9 3.65 4.6 5.48 11.43 5.48 20.48v34.06h-15.44V70.38c0-3.58-1.04-6.5-3.12-8.76s-4.91-3.39-8.49-3.39-6.7 1.15-8.93 3.45c-2.23 2.3-3.34 5.35-3.34 9.14v34.93h-15.55Zm62.75 0V25.8h15.55v79.94h-15.55Zm41.72 0-19.82-27.82h-8.87l25.19-31.65h16.21l-23.33 29.24.33-7.67 27.71 37.89H255.1Z" class="cls-2"/><path d="M288.93 107.28c-4.31 0-8.07-.77-11.28-2.3-3.21-1.53-5.73-3.72-7.56-6.57-1.83-2.85-2.74-6.28-2.74-10.29 0-4.38 1.08-7.96 3.23-10.73 2.15-2.77 5.2-4.85 9.14-6.24 3.94-1.39 8.54-2.08 13.8-2.08h13.69v9.2H293.3c-3.43 0-6.06.84-7.88 2.52-1.83 1.68-2.74 3.87-2.74 6.57s.91 4.87 2.74 6.52c1.82 1.64 4.45 2.46 7.88 2.46 2.12 0 4.07-.38 5.86-1.15 1.79-.77 3.27-2.06 4.44-3.89 1.17-1.82 1.82-4.34 1.97-7.56l3.72 4.27c-.37 4.16-1.37 7.67-3.01 10.51-1.64 2.85-3.91 5.02-6.79 6.52s-6.41 2.25-10.57 2.25Zm19.16-1.53V88.12h-2.52v-19.6c0-3.36-.84-5.88-2.52-7.56-1.68-1.68-4.23-2.52-7.67-2.52-1.75 0-3.93.04-6.52.11-2.59.07-5.19.16-7.78.27-2.59.11-4.95.24-7.06.38V46.06c1.68-.15 3.58-.27 5.69-.38 2.12-.11 4.31-.2 6.57-.27 2.26-.07 4.42-.11 6.46-.11 6.06 0 11.13.82 15.22 2.46 4.09 1.64 7.17 4.2 9.25 7.67 2.08 3.47 3.12 7.98 3.12 13.52v36.8h-12.27Zm46.88 2.08c-5.11 0-9.58-.88-13.42-2.63-3.83-1.75-7.01-4.11-9.53-7.06a30.758 30.758 0 0 1-5.69-9.91 33.513 33.513 0 0 1-1.92-11.17v-2.08c0-3.94.64-7.76 1.92-11.44 1.28-3.69 3.16-6.99 5.64-9.91 2.48-2.92 5.6-5.24 9.36-6.95s8.08-2.57 12.98-2.57c6.42 0 11.81 1.42 16.15 4.27 4.34 2.85 7.63 6.55 9.86 11.12 2.23 4.56 3.34 9.47 3.34 14.73v5.58h-52.79v-9.42h43.04l-4.71 4.6c0-3.79-.55-7.03-1.64-9.69-1.1-2.67-2.74-4.73-4.93-6.19-2.19-1.46-4.97-2.19-8.32-2.19s-6.19.77-8.49 2.3c-2.3 1.53-4.04 3.72-5.2 6.57-1.17 2.85-1.75 6.28-1.75 10.29 0 3.72.56 7.01 1.7 9.86 1.13 2.85 2.88 5.08 5.26 6.68 2.37 1.61 5.42 2.41 9.14 2.41s6.63-.73 8.93-2.19 3.78-3.25 4.44-5.37h14.24c-.8 4.09-2.46 7.67-4.98 10.73-2.52 3.07-5.69 5.44-9.53 7.12-3.83 1.68-8.2 2.52-13.09 2.52Zm32.96-2.08V46.28h12.27v25.19h-.33c0-8.47 1.82-14.93 5.48-19.38 3.65-4.45 9.02-6.68 16.1-6.68h2.19v13.47h-4.16c-5.11 0-9.05 1.37-11.83 4.11-2.78 2.74-4.16 6.7-4.16 11.88v30.88h-15.55ZM100.09 48.03c.03-11.16.1-8.62.06-19.8-1.21.3-2.47.45-3.77.45-.67 0-1.33-.04-1.98-.12-.06 19.07 1.35 24.84.26 43.54-.21 3.66-.93 7.27-2.07 10.72a45.501 45.501 0 0 1-4.52 9.63c-4.71 7.56-11.6 13.77-19.72 17.39-.25.11-.49.22-.75.32-.4.17-.8.33-1.21.49-1.45.57-2.9 1.05-4.35 1.45-.43.12-.85.24-1.28.34a44.163 44.163 0 0 1-21.68-.1c-.43-.11-.86-.22-1.28-.35-1.48-.42-2.94-.93-4.36-1.5a44.97 44.97 0 0 1-21.67-18.44c-1.9-3.14-3.43-6.56-4.52-10.21a46.43 46.43 0 0 1-1.37-5.98c-.95-24.41-.13-35.16-.42-59.62.12-.98.87-2.1 1.85-2.33l72.93.14a15.942 15.942 0 0 1 .53-5.98l-78.26.07C1.28 8.4-.03 9.16 0 10.45c.19 7.41.19 44.47 0 63.25-.08 8.51 3.17 16.02 7.24 22.38 1.01 1.58 2.12 3.09 3.3 4.52v.01c.4.48.8.96 1.21 1.42 5.84 6.54 13.4 11.39 21.68 14.21 1.84.64 3.73 1.17 5.64 1.59 7.07 1.58 14.49 1.73 21.68.26 1.9-.39 3.78-.89 5.63-1.5 7.71-2.54 14.97-7.09 21.04-13.87.22-.24.43-.48.64-.73.17-.19.33-.39.5-.58v-.01c1.53-1.81 2.86-3.62 4.02-5.44 9.4-14.73 7.46-29.76 7.49-47.94Z" class="cls-2"/><path d="M86.26 25.99v53.43a38.12 38.12 0 0 1-3.85 8.2c-4.01 6.44-9.88 11.73-16.79 14.81V25.99h20.64Z" style="fill:#066cff"/><path d="M60.25 47.04v57.31c-.37.1-.73.2-1.09.29a37.667 37.667 0 0 1-18.46-.08c-.37-.09-.73-.19-1.09-.3V47.05h20.64Z" style="fill:#00aafe"/><path d="M34.23 60.26v41.99a38.31 38.31 0 0 1-16.79-14.99 37.865 37.865 0 0 1-3.85-8.7V60.25h20.64Z" style="fill:#59cdfe"/><path d="m109.38 12.97-5.14-.56c-2.85-.31-4.57-3.3-3.42-5.92l2.08-4.73c3.86 2.25 6.46 6.43 6.47 11.22Zm0 .05c0 4.79-2.61 8.97-6.47 11.22l-2.08-4.73c-1.15-2.62.57-5.61 3.42-5.92l5.14-.56Zm-6.52 11.24c-1.91 1.1-4.12 1.73-6.48 1.73s-4.57-.63-6.48-1.73l3.06-4.17c1.69-2.31 5.14-2.31 6.84 0l3.06 4.17ZM91.95 19.5l-2.08 4.73c-3.86-2.25-6.46-6.43-6.47-11.22l5.14.56c2.85.31 4.57 3.3 3.42 5.92Zm-3.42-7.09-5.14.56C83.39 8.18 86 4 89.86 1.75l2.08 4.73c1.15 2.62-.57 5.61-3.42 5.92Zm14.33-10.68L99.8 5.9c-1.69 2.31-5.14 2.31-6.84 0L89.9 1.73C91.81.63 94.02 0 96.38 0s4.57.63 6.48 1.73Z" style="fill:#ef9f2b"/></g></svg>